HIERARCHY
ROOT Hips
{
  OFFSET 0 0 0
  CHANNELS 6 Xposition Yposition Zposition Zrotation Yrotation Xrotation
  JOINT LeftThigh
  {
    OFFSET 8.409438 0 -5.917753
    CHANNELS 3 Zrotation Yrotation Xrotation
    JOINT LeftLeg
    {
      OFFSET 0 0 -42.358652
      CHANNELS 3 Zrotation Yrotation Xrotation
      JOINT LeftFoot
      {
        OFFSET 0 0 -39.357303
        CHANNELS 3 Zrotation Yrotation Xrotation
      }
    }
  }
  JOINT RightThigh
  {
    OFFSET -8.409438 0 -5.917753
    CHANNELS 3 Zrotation Yrotation Xrotation
    JOINT RightLeg
    {
      OFFSET 0 0 -42.358652
      CHANNELS 3 Zrotation Yrotation Xrotation
      JOINT RightFoot
      {
        OFFSET 0 0 -39.357303
        CHANNELS 3 Zrotation Yrotation Xrotation
      }
    }
  }
  JOINT SpineLow
  {
    OFFSET 0 0 4.719101
    CHANNELS 3 Zrotation Yrotation Xrotation
    JOINT SpineMid
    {
      OFFSET 0 0 12.899191
      CHANNELS 3 Zrotation Yrotation Xrotation
      JOINT Chest
      {
        OFFSET 0 0 12.899191
        CHANNELS 3 Zrotation Yrotation Xrotation
        JOINT LeftShoulder
        {
          OFFSET 7.550562 1.41573 9.438202
          CHANNELS 3 Zrotation Yrotation Xrotation
          JOINT LeftArm
          {
            OFFSET 9.155056 0 4.247191
            CHANNELS 3 Zrotation Yrotation Xrotation
            JOINT LeftForearm
            {
              OFFSET 0 0 25.771955
              CHANNELS 3 Zrotation Yrotation Xrotation
              JOINT LeftHand
              {
                OFFSET 0 0 25.197169
                CHANNELS 3 Zrotation Yrotation Xrotation
              }
            }
          }
        }
        JOINT RightShoulder
        {
          OFFSET -7.550562 1.41573 9.438202
          CHANNELS 3 Zrotation Yrotation Xrotation
          JOINT RightArm
          {
            OFFSET -9.155056 0 4.247191
            CHANNELS 3 Zrotation Yrotation Xrotation
            JOINT RightForearm
            {
              OFFSET 0 0 -25.771955
              CHANNELS 3 Zrotation Yrotation Xrotation
              JOINT RightHand
              {
                OFFSET 0 0 -25.197169
                CHANNELS 3 Zrotation Yrotation Xrotation
              }
            }
          }
        }
        JOINT Neck
        {
          OFFSET 0 0 15.101124
          CHANNELS 3 Zrotation Yrotation Xrotation
          JOINT Head
          {
            OFFSET 0 0 11.325843
            CHANNELS 3 Zrotation Yrotation Xrotation
            End Site
            {
              OFFSET 0 0 14.157303
            }
          }
        }
      }
    }
  }
}
MOTION
Frames: 8
Frame Time: 0.0
0.0  89.887642  0.0  -102.750537  35.663868  -179.748929  4.20774  -58.538257  -26.999571  8.797378  3.63847  19.591435  5.520053  -1.001159  9.85978  -49.251621  18.074973  -49.796051  0.375776  -0.039383  27.479473  -0.814291  5.869565  1.793333  -1.818529  -2.800459  -0.195076  -4.968634  -7.664452  -0.322905  -4.968634  -7.664452  -0.322905  -13.783731  9.88866  0.159678  132.885926  54.16543  -137.574528  -22.062754  -9.180857  70.839399  70.056757  -6.383886  41.410762  -27.362496  10.03223  7.749869  105.258042  31.379182  69.587167  -23.125886  -10.208193  -18.216602  56.952131  7.723577  1.987847  -30.047722  -14.274027  17.387765  -22.026289  -11.598279  12.292629  
0.0  89.887642  0.0  -101.555845  36.186056  -178.543254  6.251113  -57.52908  -28.757419  7.397179  3.464304  20.39798  6.103233  -1.052893  10.006838  -52.232249  15.376594  -53.491961  -1.761092  1.046373  32.321835  0.252894  5.883861  1.664459  -1.452679  -2.571298  -0.202873  -3.962912  -7.037637  -0.40079  -3.962912  -7.037637  -0.40079  -14.962205  9.49146  0.043122  132.457305  52.166832  -137.776611  -23.200803  -8.222324  71.584399  70.931747  -5.386138  41.405253  -29.532957  9.462481  8.09365  102.731503  32.36516  68.829865  -22.212455  -7.102238  -21.422909  56.450964  7.633735  2.52635  -30.258176  -14.792409  16.954078  -22.168496  -11.972452  11.931198  
0.0  89.887642  0.0  -99.811557  36.014976  -177.3193  10.772094  -57.797096  -31.774517  6.729989  4.600855  21.152444  5.926927  -1.263606  9.971243  -52.672007  13.557057  -55.740921  -2.761645  2.110846  36.697976  1.536111  5.713463  1.527928  -1.121977  -2.481792  -0.149511  -3.061351  -6.788977  -0.294062  -3.061351  -6.788977  -0.294062  -15.789113  9.288746  -0.039399  131.859975  50.806293  -137.598383  -23.693776  -8.158886  71.570968  71.548402  -5.020423  42.024218  -31.15865  8.499865  8.168849  100.31322  34.235318  67.553418  -21.329772  -5.154326  -23.313168  55.593668  6.889182  3.328331  -30.273037  -15.183194  16.641363  -22.168237  -12.250814  11.672415  
0.0  89.887642  0.0  -96.950195  35.455376  -176.714526  15.714169  -58.244655  -33.453332  6.015165  5.822371  21.715893  5.21335  -1.39485  9.758378  -50.286339  14.090345  -56.433224  -3.267126  2.05157  40.774093  2.513663  5.638963  1.349439  -0.943037  -2.470148  0.182629  -2.604737  -6.743522  0.597622  -2.604736  -6.743522  0.597621  -15.416225  9.09492  -0.577097  132.213398  49.983791  -137.044691  -23.411332  -8.675628  71.185439  71.272321  -4.690945  43.058029  -31.052854  7.752091  7.786441  98.432105  35.615496  66.384911  -21.712645  -4.927673  -24.97459  54.897339  6.136926  3.872613  -29.367247  -15.396126  16.413668  -21.48763  -12.372984  11.510205  
0.0  89.887642  0.0  -94.170786  34.845484  -176.350744  20.961377  -58.390174  -35.331892  4.911793  7.016306  22.239813  4.612144  -1.518303  9.48916  -46.770159  15.497469  -56.133031  -3.094929  1.229124  43.887626  2.87407  5.393666  1.288431  -0.882543  -2.508863  0.451911  -2.467405  -6.839834  1.331278  -2.467405  -6.839834  1.331278  -14.820482  9.297951  -0.712741  133.591457  49.8316  -136.495126  -22.565009  -8.100158  70.954832  71.831126  -4.614893  43.181518  -30.162298  7.952938  8.049733  97.365571  36.577134  65.71623  -23.436166  -6.268613  -26.772857  54.523465  5.620438  4.259521  -28.285495  -15.144677  16.53512  -20.689176  -12.158404  11.641639  
0.0  89.887642  0.0  -92.299422  34.583981  -175.976517  26.66626  -58.1888  -38.77055  3.482486  8.642804  22.98637  4.687646  -1.590146  8.981035  -43.756221  16.790724  -55.985622  -2.602511  -0.248264  46.574496  2.676768  5.36254  1.138119  -0.913402  -2.528262  0.5644  -2.564295  -6.887769  1.643748  -2.564295  -6.88777  1.643748  -14.650023  9.616355  -0.592917  134.669299  50.163352  -136.103352  -21.585797  -6.901536  70.51102  73.325606  -5.412834  41.829653  -29.306753  8.399819  8.566807  96.619859  37.230466  65.444735  -25.541342  -8.091612  -28.820896  54.290288  5.199257  4.545263  -27.377064  -14.771877  16.822714  -20.021493  -11.86504  11.899331  
0.0  89.887642  0.0  -91.164379  34.502011  -175.969288  31.19685  -57.84215  -41.863279  1.911705  10.394949  23.766404  4.79344  -1.634298  8.815655  -41.275326  18.140116  -55.442067  -2.319812  -1.898202  48.750304  2.044216  5.482113  1.077443  -1.023443  -2.574888  0.584216  -2.869636  -7.011435  1.711801  -2.869636  -7.011435  1.711801  -14.560641  10.372248  -0.217372  134.135201  50.950567  -136.291311  -20.725331  -5.890821  69.482391  75.021296  -7.110386  39.070861  -28.476017  9.298478  9.467292  95.483335  38.133329  64.91431  -27.281551  -9.714769  -31.091126  54.185188  4.860916  4.787915  -26.661115  -14.216877  17.19011  -19.50371  -11.443355  12.221409  
0.0  89.887642  0.0  -90.899707  34.257981  -176.52482  33.943496  -57.795318  -44.194843  0.841099  11.888242  24.668194  4.90329  -1.687261  8.681953  -39.258482  19.343843  -54.343508  -2.768531  -3.270573  50.711643  0.88146  5.683336  1.115232  -1.214581  -2.692172  0.565453  -3.395749  -7.32764  1.687204  -3.39575  -7.32764  1.687204  -14.665821  11.406627  0.433874  132.132837  52.474516  -137.404129  -20.253897  -5.582518  68.542465  75.999967  -8.835945  35.677325  -27.968153  10.459824  10.490878  94.021101  39.221899  64.250724  -28.54157  -11.029489  -33.868395  54.275232  4.61945  5.087486  -26.14995  -13.571049  17.561736  -19.142696  -10.959071  12.545827  
